<?xml version="1.0" encoding="UTF-8"?>
<svg width="660px" height="660px" viewBox="0 0 660 660" version="1.1" xmlns="http://www.w3.org/2000/svg" xmlns:xlink="http://www.w3.org/1999/xlink">
    <!-- Generator: Sketch 48.1 (47250) - http://www.bohemiancoding.com/sketch -->
    <title>660x660 copy 10</title>
    <desc>Created with Sketch.</desc>
    <defs></defs>
    <g id="Page-1" stroke="none" stroke-width="1" fill="none" fill-rule="evenodd">
        <g id="660x660-copy-10">
            <rect id="Rectangle-6" fill="#ECF0F1" x="0" y="0" width="660" height="660"></rect>
            <g id="021-circle-copy" transform="translate(10.000000, 10.000000)" fill="#36D1DC" fill-rule="nonzero">
                <path d="M590.827473,270.877193 C566.072619,270.877193 545.623872,289.185965 542.209894,312.982456 L414.466695,312.982456 C412.724582,291.880702 404.063193,272.259649 389.592421,256.673684 L390.098195,257.178947 L488.120115,159.25614 L482.85163,153.992982 L384.850784,251.894737 C369.178798,237.2 349.355245,228.385965 328.028418,226.624561 L328.028418,97.7122807 L327.8809,97.7122807 C351.771723,94.3649123 370.176298,73.9157895 370.176298,49.122807 C370.176298,21.9929825 348.161055,0 321.003771,0 C293.853512,0 271.831244,21.9929825 271.831244,49.122807 C271.831244,73.9157895 290.242843,94.3649123 314.133667,97.7122807 L313.979124,97.7122807 L313.979124,226.533333 C290.917209,227.985965 269.442865,237.522807 253.005191,253.950877 C237.010071,269.929825 227.498699,290.659649 225.658242,312.982456 L97.6972787,312.982456 L97.6972787,320 L97.6972787,327.017544 L225.566922,327.017544 C226.950777,349.045614 235.815881,369.557895 250.94697,385.65614 L154.217586,482.294737 C147.235087,476.336842 138.552624,472.947368 129.266041,472.947368 C118.946835,472.947368 109.245798,476.961404 101.94719,484.252632 C86.8863475,499.305263 86.8863475,523.782456 101.94719,538.82807 C109.245798,546.119298 118.946835,550.119298 129.266041,550.119298 C139.592271,550.119298 149.293308,546.112281 156.591916,538.821053 C163.890524,531.529825 167.908622,521.838596 167.908622,511.522807 C167.908622,502.708772 164.817777,494.435088 159.387726,487.642105 L256.264627,390.877193 C272.238674,405.452632 292.385361,413.985965 313.979124,415.333333 L313.979124,542.280702 L314.133667,542.280702 C290.242843,545.635088 271.831244,566.084211 271.831244,590.877193 C271.831244,618.007018 293.853512,640 321.003771,640 C348.161055,640 370.176298,618.007018 370.176298,590.877193 C370.176298,566.084211 351.771723,545.635088 327.8809,542.280702 L328.028418,542.280702 L328.028418,415.25614 C348.779224,413.54386 368.082953,405.14386 383.551225,391.157895 L480.37193,487.880702 L485.640415,482.617544 L388.896981,385.964912 C404.217735,369.803509 413.16011,349.178947 414.543966,327.017544 L542.209894,327.017544 C545.623872,350.821053 566.065594,369.122807 590.827473,369.122807 C617.984757,369.122807 640,347.136842 640,320 C640,292.870175 617.984757,270.877193 590.827473,270.877193 Z M406.395376,336.750877 C405.777207,340.182456 404.913175,343.54386 403.901626,346.842105 C404.927225,343.522807 405.777207,340.161404 406.395376,336.750877 Z M151.625491,533.866667 C145.654541,539.831579 137.716691,543.115789 129.266041,543.115789 C120.815391,543.115789 112.884565,539.824561 106.913615,533.873684 C94.5923848,521.564912 94.5923848,501.522807 106.913615,489.214035 C112.884565,483.249123 120.815391,479.964912 129.266041,479.964912 C137.716691,479.964912 145.654541,483.25614 151.625491,489.214035 C157.603465,495.178947 160.883975,503.108772 160.883975,511.54386 C160.883975,519.985965 157.596441,527.908772 151.625491,533.866667 Z M317.259634,380.498246 C332.285354,381.185965 347.058185,376.231579 358.508359,366.589474 C347.06521,376.224561 332.383699,381.207018 317.259634,380.498246 Z M357.321194,358.154386 C347.381319,368.077193 334.15391,373.54386 320.062468,373.54386 C305.971027,373.54386 292.736593,368.077193 282.810767,358.154386 C272.877917,348.231579 267.405717,335.017544 267.405717,320.940351 C267.405717,306.870175 272.870892,293.649123 282.803743,283.726316 C292.736593,273.803509 305.971027,268.34386 320.062468,268.34386 C334.15391,268.34386 347.388344,273.810526 357.321194,283.726316 C377.861261,304.238596 377.861261,337.62807 357.321194,358.154386 Z M407.336678,312.982456 C406.107365,299.473684 401.899602,286.189474 394.439427,274.315789 C401.759109,285.929825 406.093316,299.122807 407.336678,312.982456 Z M399.85543,357.536842 C398.302983,360.898246 396.553846,364.154386 394.586945,367.312281 C396.56087,364.147368 398.317032,360.884211 399.85543,357.536842 Z M403.789232,347.305263 C402.72851,350.666667 401.443,353.97193 399.981873,357.178947 C401.450024,353.950877 402.735535,350.659649 403.789232,347.305263 Z" id="Shape"></path>
                <circle id="Oval" cx="48.9518414" cy="319.093484" r="48.9518414"></circle>
                <path d="M514.003194,168.611898 C524.414916,168.611898 534.202927,164.557592 541.566971,157.200302 C556.777015,141.996653 556.777015,117.266803 541.566971,102.070242 C534.202927,94.7058643 524.414916,90.6515581 513.996106,90.6515581 C503.584384,90.6515581 493.789285,94.7058643 486.425242,102.070242 C479.068286,109.43462 475.014164,119.223076 475.014164,129.635272 C475.014164,140.04038 479.068286,149.828836 486.425242,157.200302 C493.789285,164.557592 503.584384,168.611898 514.003194,168.611898 Z M491.436193,107.074334 C497.467763,101.049578 505.462605,97.7324181 513.996106,97.7324181 C522.529608,97.7324181 530.531537,101.049578 536.556019,107.074334 C548.987715,119.506594 548.987715,139.742686 536.556019,152.182035 C530.531537,158.20679 522.529608,161.516862 514.003194,161.516862 C505.47678,161.516862 497.467763,158.199702 491.436193,152.182035 C485.411711,146.150191 482.10179,138.14081 482.10179,129.628184 C482.10179,121.115559 485.418799,113.106177 491.436193,107.074334 Z" id="Shape"></path>
                <path d="M514.004523,473.201133 C503.585358,473.201133 493.789925,477.255071 486.425631,484.618779 C479.068424,491.9754 475.014164,501.770054 475.014164,512.181303 C475.014164,522.592552 479.068424,532.387206 486.425631,539.750914 C493.789925,547.114623 503.585358,551.161473 514.004523,551.161473 C524.430776,551.161473 534.219121,547.107535 541.569239,539.750914 C556.772715,524.555735 556.779803,499.821046 541.569239,484.625867 C534.219121,477.255071 524.430776,473.201133 514.004523,473.201133 Z M536.558117,534.733103 C530.53343,540.764399 522.531228,544.067082 514.004523,544.067082 C505.477818,544.067082 497.468528,540.743137 491.436753,534.733103 C485.412066,528.701808 482.102032,520.707329 482.102032,512.174216 C482.102032,503.641102 485.419154,495.646624 491.436753,489.615328 C497.468528,483.59112 505.463643,480.281349 514.004523,480.281349 C522.52414,480.281349 530.53343,483.605295 536.558117,489.615328 C548.990237,502.060634 548.990237,522.294885 536.558117,534.733103 Z" id="Shape"></path>
                <path d="M129.057078,167.60067 C137.252398,167.60067 144.993586,164.956179 151.498141,160.233872 L248.584388,257.450425 L253.824363,252.203418 L157.066488,155.315677 C163.745708,148.165755 167.490543,138.95201 167.490543,129.129612 C167.490543,118.852474 163.49419,109.183988 156.235078,101.915134 C148.982954,94.6462797 139.334414,90.6515581 129.064064,90.6515581 C118.793714,90.6515581 109.138188,94.6532757 101.886063,101.915134 C94.6409253,109.169996 90.6515581,118.831486 90.6515581,129.122616 C90.6515581,139.413747 94.6409253,149.075236 101.886063,156.330099 C109.138188,163.598953 118.786728,167.60067 129.057078,167.60067 Z M106.825613,106.861313 C112.76425,100.914705 120.652158,97.6475679 129.064064,97.6475679 C137.461997,97.6475679 145.356891,100.921701 151.295529,106.861313 C157.241153,112.807921 160.503911,120.713412 160.503911,129.129612 C160.503911,137.53182 157.22718,145.437311 151.295529,151.390916 C145.356891,157.337524 137.468983,160.604661 129.057078,160.604661 C120.659145,160.604661 112.76425,157.330528 106.825613,151.390916 C100.893961,145.458299 97.6381907,137.545812 97.6381907,129.129612 C97.6381907,120.713412 100.900948,112.800925 106.825613,106.861313 Z" id="Shape"></path>
            </g>
        </g>
    </g>
</svg>