<?xml version="1.0" encoding="UTF-8"?>
<svg width="660px" height="660px" viewBox="0 0 660 660" version="1.1" xmlns="http://www.w3.org/2000/svg" xmlns:xlink="http://www.w3.org/1999/xlink">
    <!-- Generator: Sketch 48.1 (47250) - http://www.bohemiancoding.com/sketch -->
    <title>660x660 copy 5</title>
    <desc>Created with Sketch.</desc>
    <defs></defs>
    <g id="Page-1" stroke="none" stroke-width="1" fill="none" fill-rule="evenodd">
        <g id="660x660-copy-5">
            <rect id="Rectangle-6" fill="#ECF0F1" x="0" y="0" width="660" height="660"></rect>
            <g id="010-post-it-1-copy" transform="translate(10.000000, 10.000000)" fill="#36D1DC" fill-rule="nonzero">
                <path d="M373.087733,504.234876 C371.753987,497.008645 364.821506,492.261158 357.541525,493.594905 L157.462071,531.114802 L82.1285261,104.289716 L535.833539,28.6899218 L591.913387,346.369056 C593.167133,353.622786 600.099614,358.449023 607.353345,357.169026 C614.607075,355.88903 619.459562,348.982799 618.153315,341.729069 L559.807224,11.0362199 C558.553478,3.83623954 551.647246,-1.09749701 544.501016,0.209999428 L377.221472,28.1036734 L41.1423879,0.103749717 C37.5423977,-0.269999264 33.9961573,0.983747319 31.2761647,3.32999092 C28.5561722,5.67623453 26.9024267,9.03622537 26.7161772,12.6362156 L0.0499998637,492.634907 C-0.349999046,499.701138 4.84998678,505.861121 11.8899676,506.634869 L128.36965,519.568584 L133.569636,549.008504 C134.183384,552.502244 136.183379,555.622236 139.115871,557.64848 C141.329615,559.194726 143.969608,560.022224 146.6621,560.022224 C147.488348,560.022224 148.315846,559.942224 149.115844,559.782224 L362.449012,519.782333 C369.701492,518.422337 374.447729,511.462356 373.087733,504.234876 Z" id="Shape"></path>
                <path d="M584.927156,556.128484 L544.901015,546.128511 L543.221019,539.43478 C553.620991,527.968561 560.980971,513.328601 564.047213,498.154892 C571.167193,494.474902 576.340929,487.488671 577.380926,479.088694 L580.287168,455.888757 C581.167166,448.848777 579.007172,441.755046 574.340934,436.44881 C572.900938,434.795065 571.247193,433.355069 569.460948,432.155072 L570.154696,418.021361 L572.608439,415.567617 C579.462171,408.261387 588.768395,392.66143 574.048435,370.153991 C567.062204,359.43402 552.662244,346.687805 523.834822,346.687805 C515.354845,346.687805 496.181148,346.687805 477.568698,358.367773 C422.688848,360.287768 416.235115,389.861437 416.235115,412.207626 C416.235115,416.607614 417.008863,424.847592 417.781361,431.727573 C415.807617,432.98132 413.995122,434.501316 412.421376,436.287561 C407.701389,441.647546 405.487645,448.767527 406.367642,455.887507 L409.273884,479.087444 C410.367631,487.753671 415.860116,494.953651 423.993844,498.501141 C427.007586,513.034852 433.967567,527.114813 443.700041,538.287283 L441.753796,546.127261 L401.727655,556.127234 C369.301493,564.233462 346.661555,593.247133 346.661555,626.687042 C346.661555,634.047022 352.635289,640.020755 359.995269,640.020755 L626.660792,640.020755 C634.020772,640.020755 639.994506,634.020772 639.994506,626.660792 C639.994506,593.248383 617.354567,564.234712 584.927156,556.128484 Z" id="Shape"></path>
            </g>
        </g>
    </g>
</svg>