<?xml version="1.0" encoding="UTF-8"?>
<svg width="660px" height="660px" viewBox="0 0 660 660" version="1.1" xmlns="http://www.w3.org/2000/svg" xmlns:xlink="http://www.w3.org/1999/xlink">
    <!-- Generator: Sketch 48.1 (47250) - http://www.bohemiancoding.com/sketch -->
    <title>660x660 copy 6</title>
    <desc>Created with Sketch.</desc>
    <defs>
        <path d="M404.753002,467.293589 C375.011049,467.293589 350.90448,491.398746 350.90448,521.145267 C350.90448,550.885478 375.011049,574.996945 404.753002,574.996945 C434.507575,574.996945 458.607834,550.885478 458.607834,521.145267 C458.614144,491.405057 434.507575,467.293589 404.753002,467.293589 Z M404.753002,517.529494 L404.753002,476.109009 C427.641621,476.109009 446.182223,494.648525 446.182223,517.529494 L404.753002,517.529494 Z" id="path-1"></path>
    </defs>
    <g id="Page-1" stroke="none" stroke-width="1" fill="none" fill-rule="evenodd">
        <g id="660x660-copy-6">
            <rect id="Rectangle-6" fill="#ECF0F1" x="0" y="0" width="660" height="660"></rect>
            <g id="020-symbol-copy" transform="translate(23.000000, 5.000000)" fill-rule="nonzero" stroke="#36D1DC" stroke-width="8">
                <rect id="Rectangle-path" x="50.3773758" y="217.143861" width="19.1086598" height="10.4229053"></rect>
                <rect id="Rectangle-path" x="74.6974883" y="217.143861" width="227.566767" height="10.4229053"></rect>
                <rect id="Rectangle-path" x="50.3773758" y="269.258388" width="19.1086598" height="10.4229053"></rect>
                <rect id="Rectangle-path" x="74.6974883" y="269.258388" width="227.566767" height="10.4229053"></rect>
                <rect id="Rectangle-path" x="74.6974883" y="323.110066" width="227.566767" height="10.4229053"></rect>
                <rect id="Rectangle-path" x="50.3773758" y="323.110066" width="19.1086598" height="10.4229053"></rect>
                <rect id="Rectangle-path" x="50.3773758" y="383.910347" width="19.1086598" height="10.4229053"></rect>
                <rect id="Rectangle-path" x="74.6974883" y="383.910347" width="227.566767" height="10.4229053"></rect>
                <path d="M601.822875,507.033158 C599.147769,503.568138 550.761306,441.862908 480.657036,411.070472 L480.657036,18.7820558 C480.650697,8.42500313 472.219674,0 461.855222,0 L91.3022696,0 C80.937817,0 72.5067944,8.42500313 72.5067944,18.7820558 L72.5067944,104.98314 L18.7954752,104.98314 C8.4310226,104.98314 0,113.414478 0,123.771531 L0,590.6624 C0,601.019452 8.4310226,609.444456 18.7954752,609.444456 L285.038294,609.444456 C317.817857,631.355798 358.67979,649.694433 403.668487,649.694433 C513.151338,649.694433 598.247614,541.157588 601.816536,536.546008 L613.214264,521.79275 L601.822875,507.033158 Z M442.939303,21.7276396 C449.709478,21.7276396 455.20549,27.2133936 455.20549,33.985069 C455.20549,40.7567445 449.715817,46.2424984 442.939303,46.2424984 C436.16279,46.2424984 430.660438,40.7567445 430.660438,33.985069 C430.660438,27.2133936 436.175468,21.7276396 442.939303,21.7276396 Z M388.904689,21.7276396 C395.674864,21.7276396 401.183554,27.2133936 401.183554,33.985069 C401.183554,40.7567445 395.681203,46.2424984 388.904689,46.2424984 C382.134515,46.2424984 376.644841,40.7567445 376.644841,33.985069 C376.644841,27.2133936 382.134515,21.7276396 388.904689,21.7276396 Z M335.218727,21.7276396 C341.982562,21.7276396 347.478574,27.2133936 347.478574,33.985069 C347.478574,40.7567445 341.988901,46.2424984 335.218727,46.2424984 C328.435874,46.2424984 322.939861,40.7567445 322.939861,33.985069 C322.939861,27.2133936 328.423196,21.7276396 335.218727,21.7276396 Z M88.6144849,69.7628267 L461.855222,69.7628267 C462.787072,69.7628267 463.680887,69.6044619 464.543006,69.3764167 L464.543006,404.729549 C446.799824,398.521652 427.896584,394.549865 408.150242,394.017759 L408.150242,123.771531 C408.150242,113.414478 399.706541,104.98314 389.342088,104.98314 L88.6144849,104.98314 L88.6144849,69.7628267 Z M382.692357,138.974544 C382.692357,145.739885 377.215362,151.231973 370.42617,151.231973 C363.655995,151.231973 358.166322,145.74622 358.166322,138.974544 C358.166322,132.202869 363.649656,126.717115 370.42617,126.717115 C377.215362,126.717115 382.692357,132.209203 382.692357,138.974544 Z M328.670421,138.974544 C328.670421,145.739885 323.174409,151.231973 316.410573,151.231973 C309.62772,151.231973 304.138047,145.74622 304.138047,138.974544 C304.138047,132.202869 309.621381,126.717115 316.410573,126.717115 C323.174409,126.723449 328.670421,132.209203 328.670421,138.974544 Z M274.965441,138.974544 C274.965441,145.739885 269.482107,151.231973 262.705593,151.231973 C255.929079,151.231973 250.445745,145.74622 250.445745,138.974544 C250.445745,132.202869 255.929079,126.717115 262.705593,126.717115 C269.482107,126.717115 274.965441,132.209203 274.965441,138.974544 Z M18.8018143,593.348265 C17.3184615,593.348265 16.1140297,592.151028 16.1140297,590.6624 L16.1140297,174.752302 L389.361105,174.752302 C390.292955,174.752302 391.186771,174.600272 392.04889,174.372226 L392.04889,394.328154 C288.226869,401.543251 208.975256,502.573608 205.533117,507.033158 L194.141728,521.786416 L205.533117,536.539673 C207.276374,538.807456 228.721599,566.122203 263.01621,593.348265 L18.8018143,593.348265 Z M404.568642,624.381416 C305.703808,624.381416 225.56472,520.627186 225.56472,520.627186 C225.56472,520.627186 305.710147,416.866621 404.568642,416.866621 C503.446153,416.866621 583.578903,520.627186 583.578903,520.627186 C583.578903,520.627186 503.446153,624.381416 404.568642,624.381416 Z" id="Shape" fill="#36D1DC"></path>
                <g id="Shape">
                    <use fill="#36D1DC" fill-rule="evenodd" xlink:href="#path-1"></use>
                    <use xlink:href="#path-1"></use>
                    <use xlink:href="#path-1"></use>
                </g>
            </g>
        </g>
    </g>
</svg>