<?xml version="1.0" encoding="UTF-8"?>
<svg width="660px" height="660px" viewBox="0 0 660 660" version="1.1" xmlns="http://www.w3.org/2000/svg" xmlns:xlink="http://www.w3.org/1999/xlink">
    <!-- Generator: Sketch 48.1 (47250) - http://www.bohemiancoding.com/sketch -->
    <title>660x660 copy 8</title>
    <desc>Created with Sketch.</desc>
    <defs></defs>
    <g id="Page-1" stroke="none" stroke-width="1" fill="none" fill-rule="evenodd">
        <g id="660x660-copy-8">
            <rect id="Rectangle-6" fill="#ECF0F1" x="0" y="0" width="660" height="660"></rect>
            <g id="001-architect-with-helmet-copy" transform="translate(48.000000, 10.000000)" fill="#36D1DC" fill-rule="nonzero">
                <path d="M105.698626,79.8852628 C128.380147,84.9533781 151.661659,87.5260717 174.902263,87.5260717 C198.142867,87.5260717 221.42438,84.9579235 244.019538,79.9034444 C246.319508,79.4398141 247.887669,77.3080239 247.646763,74.9762363 C244.396806,43.8175543 222.206188,18.2542534 193.933832,10.1361781 L193.933832,4.7271582 C193.933832,2.21810022 191.897495,0.181763306 189.388437,0.181763306 C186.879379,0.181763306 184.843042,2.21810022 184.843042,4.7271582 L184.843042,8.21347609 C181.570358,7.73166423 178.26131,7.4043958 174.888627,7.4043958 C171.525035,7.4043958 168.225078,7.73166423 164.956939,8.20893069 L164.956939,4.7271582 C164.956939,2.21810022 162.920602,0.181763306 160.411544,0.181763306 C157.902486,0.181763306 155.86615,2.21810022 155.86615,4.7271582 L155.86615,10.1316327 C127.602884,18.2451626 105.403175,43.8130089 102.157763,74.9762363 C101.916858,77.2671154 103.448656,79.380724 105.698626,79.8852628 Z M155.86615,19.6587804 L155.86615,33.7358684 C155.86615,36.2449264 157.902486,38.2812633 160.411544,38.2812633 C162.920602,38.2812633 164.956939,36.2449264 164.956939,33.7358684 L164.956939,17.3769922 C168.215987,16.8269994 171.534126,16.4906402 174.911354,16.4906402 C178.279492,16.4906402 181.588539,16.8269994 184.843042,17.3724468 L184.843042,33.731323 C184.843042,36.240381 186.879379,38.2767179 189.388437,38.2767179 C191.897495,38.2767179 193.933832,36.240381 193.933832,33.731323 L193.933832,19.654235 C216.328992,27.1086827 233.956034,47.1947827 238.05598,71.8899132 C196.597433,80.5716175 153.375273,80.5988898 111.739456,71.8899132 C115.843947,47.1993281 133.466443,27.1177735 155.86615,19.6587804 Z M203.042803,66.9399782 C193.824742,69.0035874 184.352139,70.0490283 174.897718,70.0490283 C165.452387,70.0490283 155.98433,69.0035874 146.757178,66.9399782 C144.30721,66.3899854 142.766321,63.9627445 143.311769,61.5127767 C143.861762,59.0628088 146.307184,57.5310107 148.734425,58.0673673 C165.916018,61.9036806 183.933963,61.8991352 201.061011,58.0673673 C203.515524,57.5264653 205.93822,59.0628088 206.488213,61.5127767 C207.038205,63.9627445 205.492771,66.3899854 203.042803,66.9399782 Z M99.1032581,100.425902 C99.1896206,97.4759411 99.4532535,88.4942408 105.898623,86.0624545 C112.266722,83.662486 118.766636,90.1305829 120.002984,91.4532928 C121.716598,93.2896324 121.621144,96.1668674 119.78935,97.8804812 C117.953011,99.5895497 115.075776,99.4986418 113.362162,97.6668477 C112.103087,96.335047 110.216749,95.0032463 109.212216,94.6941594 C108.903129,95.2805154 108.303137,96.8986759 108.189502,100.698626 C107.725872,116.475692 119.952984,120.730181 120.07571,120.775635 C121.512055,121.252902 122.616586,122.416523 123.021126,123.875595 L123.216578,124.589222 C123.29385,124.861945 123.339304,125.14376 123.366576,125.425574 C126.843803,166.861394 159.588828,180.265764 174.902263,180.265764 C190.215699,180.265764 222.960724,166.861394 226.437951,125.425574 C226.460678,125.148305 226.510677,124.871036 226.583403,124.602858 L226.778855,123.889231 C227.17885,122.425614 228.287926,121.257447 229.724271,120.775635 C230.196992,120.607456 242.065018,116.257513 241.610479,100.698626 C241.501389,96.9032213 240.901397,95.2896061 240.59231,94.6987048 C239.583233,95.0168824 237.642349,96.3850463 236.43782,97.6713931 C234.724206,99.5077326 231.846971,99.5986405 230.010631,97.8850266 C228.174292,96.1714128 228.083384,93.2941778 229.796998,91.4578382 C231.0288,90.1305829 237.515078,83.6579406 243.901358,86.0669999 C250.346728,88.5033316 250.610361,97.4804865 250.696723,100.430448 C251.160354,116.121151 241.960474,124.852855 235.296925,128.248265 C230.756076,170.370439 197.492876,189.347463 174.902263,189.347463 C152.307105,189.347463 119.043905,170.374984 114.507601,128.25281 C107.844052,124.848309 98.6396278,116.116606 99.1032581,100.425902 Z M181.847627,99.5486412 C180.520371,99.5486412 179.261297,100.125906 178.397672,101.134984 C178.165857,101.407708 178.061313,101.744067 177.902224,102.057699 L171.897757,102.057699 C171.738669,101.744067 171.634124,101.407708 171.402309,101.134984 C170.538684,100.130452 169.27961,99.5486412 167.952355,99.5486412 L132.125552,99.5486412 C130.907386,99.5486412 129.73922,100.039544 128.884685,100.907714 C128.030151,101.775885 127.561976,102.953142 127.580157,104.171308 C127.657429,108.421252 128.384692,122.67561 134.63461,127.752816 C138.620921,130.993683 144.848112,133.007293 150.888942,133.007293 C156.661594,133.007293 161.502439,131.180044 164.529672,127.861906 C167.806902,124.271044 169.988691,116.739325 171.23413,111.143944 L178.565852,111.143944 C179.81129,116.739325 181.993079,124.271044 185.270309,127.861906 C188.302088,131.180044 193.147479,133.007293 198.915585,133.007293 C204.951869,133.007293 211.17906,130.993683 215.169917,127.752816 C221.415289,122.67561 222.147098,108.421252 222.22437,104.171308 C222.242551,102.953142 221.774376,101.775885 220.919841,100.907714 C220.065307,100.039544 218.897141,99.5486412 217.678975,99.5486412 L181.847627,99.5486412 Z M157.816124,121.734714 C156.547959,123.125604 154.025265,123.916503 150.888942,123.916503 C146.966266,123.916503 142.739049,122.625611 140.370898,120.698364 C138.802737,119.425653 137.520936,114.048451 136.961852,108.634886 L162.470608,108.634886 C161.293351,113.971179 159.525192,119.862011 157.816124,121.734714 Z M209.433628,120.702909 C207.065478,122.625611 202.83826,123.921049 198.915585,123.921049 C195.779262,123.921049 193.252023,123.125604 191.983857,121.734714 C190.279334,119.862011 188.50663,113.971179 187.333918,108.643976 L212.842675,108.643976 C212.283591,114.052996 211.00179,119.425653 209.433628,120.702909 Z M322.632143,190.961078 C277.341828,205.765429 230.301536,213.651689 182.652162,214.424406 L182.652162,323.927515 C182.652162,326.436573 180.615825,328.47291 178.106767,328.47291 C175.597709,328.47291 173.561372,326.436573 173.561372,323.927515 L173.561372,230.878736 C138.925463,230.792373 104.58955,226.919697 70.9536275,219.374341 C70.5945413,219.342524 70.2400005,219.265252 69.8900051,219.142526 C55.5765565,215.897114 41.3721975,212.060801 27.3496542,207.483588 L29.9087115,242.642218 C30.0905273,245.146731 28.2087339,247.323975 25.7042213,247.50579 C25.5905864,247.510336 25.4814969,247.514881 25.367862,247.514881 C23.0042567,247.514881 21.0133737,245.692178 20.8361033,243.3013 L17.7861434,201.338214 C17.6770539,199.815507 18.3361361,198.338254 19.5452112,197.406448 C20.7542862,196.470097 22.3497198,196.211009 23.79061,196.706457 C38.7722316,201.838208 53.9765775,206.088152 69.3127399,209.656287 C78.9807949,194.270125 94.6851342,182.588461 116.103035,174.879471 L115.821221,170.124988 C115.671222,167.620475 117.584834,165.470503 120.089346,165.320505 C122.571132,165.102326 124.748376,167.079573 124.893829,169.588631 L126.061995,189.279282 L139.643635,184.415709 C142.020877,183.570266 144.611752,184.797522 145.457195,187.161128 C146.302639,189.524733 145.075382,192.129244 142.711777,192.974688 L123.416575,199.888234 C122.916582,200.065504 122.398407,200.156412 121.884777,200.156412 C121.007516,200.156412 120.130255,199.90187 119.380265,199.401876 C118.184826,198.610978 117.434836,197.306449 117.348473,195.879195 L116.666664,184.36571 C99.5487068,190.906533 86.9988715,199.924597 78.694435,211.806259 C109.844026,218.3789 141.584519,221.697038 173.565917,221.787946 L173.565917,209.938102 C173.565917,207.438134 175.579527,205.410888 178.079494,205.392707 C204.924597,205.210891 231.569702,202.656379 257.832993,197.910987 C251.205808,192.59742 242.969552,187.933845 233.728764,184.324801 L233.04241,195.879195 C232.956047,197.306449 232.206057,198.615523 231.010618,199.401876 C230.256082,199.897324 229.383367,200.156412 228.506105,200.156412 C227.98793,200.156412 227.469755,200.065504 226.974307,199.888234 L207.683651,192.974688 C205.320046,192.129244 204.092789,189.524733 204.938233,187.161128 C205.783676,184.797522 208.370006,183.561175 210.751793,184.415709 L224.328887,189.279282 L225.497054,169.588631 C225.642507,167.079573 227.787933,165.106872 230.301536,165.320505 C232.806049,165.470503 234.71966,167.620475 234.569662,170.124988 L234.287848,174.852198 C248.228574,179.915768 260.401141,187.229309 269.069209,195.75647 C288.309866,191.78834 307.323253,186.638407 326.018462,180.238491 C327.441171,179.75668 329.018423,180.002131 330.218407,180.902119 C331.422937,181.806653 332.100201,183.247543 332.027474,184.752069 L329.141148,245.810358 C329.022968,248.319416 326.91845,250.237573 324.386665,250.137574 C321.877607,250.019394 319.941269,247.887604 320.059449,245.383091 L322.632143,190.961078 Z M344.595491,261.591969 C340.536453,257.51475 334.181991,255.528412 325.168473,255.528412 C316.154955,255.528412 309.795948,257.51475 305.741456,261.591969 C300.314254,267.050989 300.355163,274.709979 300.391526,281.468981 L300.396071,313.014022 C300.396071,326.672933 311.509562,337.786424 325.168473,337.786424 C338.827385,337.786424 349.940875,326.672933 349.940875,313.014022 L349.945421,281.468981 C349.981784,274.709979 350.027238,267.050989 344.595491,261.591969 Z M340.859176,281.418982 L340.854631,313.014022 C340.854631,321.659363 333.81836,328.695634 325.173019,328.695634 C318.800375,328.695634 313.32772,324.859321 310.873206,319.386665 L320.132176,319.386665 C322.641234,319.386665 324.677571,317.350328 324.677571,314.84127 C324.677571,312.332212 322.641234,310.295876 320.132176,310.295876 L309.486861,310.295876 L309.486861,302.623249 L320.132176,302.623249 C322.641234,302.623249 324.677571,300.586912 324.677571,298.077854 C324.677571,295.568796 322.641234,293.532459 320.132176,293.532459 L309.482316,293.532459 L309.482316,285.255295 L320.132176,285.255295 C322.641234,285.255295 324.677571,283.218958 324.677571,280.7099 C324.677571,278.200842 322.641234,276.164505 320.132176,276.164505 L309.564133,276.164505 C309.750494,272.796368 310.341395,269.860043 312.186825,268.005521 C314.418614,265.760096 318.786739,264.619202 325.168473,264.619202 C331.550208,264.619202 335.918332,265.755551 338.150121,268.005521 C340.913721,270.778212 340.886449,275.946326 340.859176,281.418982 Z M27.4405621,252.537543 C17.7906888,252.537543 11.0044142,254.646606 6.68628902,258.987458 C0.922728287,264.782836 0.968182236,272.987274 1.00454539,280.223543 L1.00909079,314.345822 C1.00909079,328.918358 12.8634807,340.772748 27.4360167,340.772748 C42.0085528,340.772748 53.8629427,328.918358 53.8629427,314.345822 L53.8674881,280.218998 C53.9083966,272.982729 53.9538506,264.778291 48.1857444,258.987458 C43.8767101,254.646606 37.0858901,252.537543 27.4405621,252.537543 Z M27.4405621,331.681959 C17.8815966,331.681959 10.104426,323.904788 10.104426,314.345822 L10.0998806,280.173544 C10.0680628,274.178168 10.0362451,268.51006 13.131659,265.396465 C15.61799,262.896498 20.4315632,261.623787 27.4405621,261.623787 C34.4495611,261.623787 39.2631342,262.891952 41.7494653,265.396465 C43.9039824,267.560073 44.5312469,270.969119 44.7130627,274.855432 L32.8904906,274.855432 C30.3814326,274.855432 28.3450957,276.891768 28.3450957,279.400826 C28.3450957,281.909884 30.3814326,283.946221 32.8904906,283.946221 L44.7812437,283.946221 L44.7812437,293.646094 L32.8904906,293.646094 C30.3814326,293.646094 28.3450957,295.682431 28.3450957,298.191489 C28.3450957,300.700547 30.3814326,302.736884 32.8904906,302.736884 L44.7766983,302.736884 L44.7766983,311.78222 L32.8904906,311.78222 C30.3814326,311.78222 28.3450957,313.818557 28.3450957,316.327615 C28.3450957,318.836673 30.3814326,320.87301 32.8904906,320.87301 L43.4767153,320.87301 C40.894931,327.200199 34.690467,331.681959 27.4405621,331.681959 Z" id="Shape"></path>
            </g>
            <g id="002-observation-copy" transform="translate(274.000000, 290.000000)" fill="#36D1DC" fill-rule="nonzero">
                <path d="M311.283984,38.7173828 C286.318457,13.7504883 253.123828,0.0013671875 217.816895,0.0013671875 C182.509961,0.0013671875 149.314648,13.7504883 124.348438,38.7166992 C99.381543,63.6822266 85.6331055,96.8768555 85.6331055,132.185156 C85.6331055,161.844922 95.3394531,190.010352 113.242773,213.0625 L97.3396484,228.965625 L93.3905273,225.016504 C91.2091797,222.835156 87.6729492,222.835156 85.4922852,225.016504 L5.98076172,304.52666 C2.12392578,308.382812 0,313.525488 0,319.007227 C0,324.488965 2.12392578,329.631641 5.98076172,333.487109 L16.512207,344.018555 C20.3683594,347.875391 25.5110352,349.999316 30.9920898,349.999316 C36.4731445,349.999316 41.6165039,347.875391 45.4719727,344.018555 L124.982812,264.507715 C127.16416,262.326367 127.16416,258.790137 124.982812,256.609473 L121.034375,252.661035 L136.936816,236.75791 C159.988965,254.66123 188.155078,264.368262 217.815527,264.368262 C253.123145,264.368262 286.31709,250.618457 311.283984,225.652246 C336.250195,200.685352 350,167.49209 350,132.183789 C350,96.8754883 336.250195,63.6829102 311.283984,38.7173828 Z M37.5737305,336.120312 C35.8264648,337.866895 33.4899414,338.828711 30.9914063,338.828711 C28.4928711,338.828711 26.1563477,337.866895 24.409082,336.120312 L13.8776367,325.588867 C10.2484375,321.958984 10.2484375,316.054102 13.8776367,312.424219 L73.6428711,252.658984 L97.3382812,276.354395 L37.5737305,336.120312 Z M105.237207,268.45752 L81.5417969,244.762109 L89.4407227,236.863184 L113.136133,260.558594 L105.237207,268.45752 Z M113.136133,244.763477 L105.236523,236.863867 L120.485449,221.614941 C121.743945,222.981445 123.027051,224.330859 124.347754,225.652246 C125.669141,226.972949 127.017871,228.256738 128.384375,229.513867 L113.136133,244.763477 Z M303.385742,217.754687 C280.529785,240.610645 250.139941,253.199023 217.816211,253.199023 C185.49248,253.199023 155.10332,240.611328 132.24668,217.754687 C85.0636719,170.57168 85.0636719,93.7986328 132.24668,46.615625 C155.102637,23.759668 185.49248,11.1712891 217.816211,11.1712891 C250.139941,11.1712891 280.529785,23.7583008 303.385742,46.615625 C350.56875,93.7986328 350.56875,170.570996 303.385742,217.754687 Z" id="Shape"></path>
                <path d="M266.522949,83.4777344 C253.512793,70.4675781 236.215137,63.3021484 217.816211,63.3021484 C199.417969,63.3021484 182.118945,70.4675781 169.109473,83.4777344 C142.252441,110.334082 142.252441,154.034863 169.109473,180.891211 C182.119629,193.901367 199.417969,201.066797 217.816211,201.066797 C236.215137,201.066797 253.513477,193.901367 266.522949,180.891211 C279.533105,167.881738 286.698535,150.584082 286.698535,132.184473 C286.698535,113.784863 279.533105,96.487207 266.522949,83.4777344 Z M258.625391,172.993652 C247.725488,183.894238 233.231934,189.896875 217.816895,189.896875 C202.401855,189.896875 187.908984,183.893555 177.008398,172.993652 C154.506543,150.491797 154.506543,113.878516 177.008398,91.3759766 C187.908984,80.4753906 202.401855,74.4727539 217.816895,74.4727539 C233.231934,74.4727539 247.724805,80.4760742 258.625391,91.3759766 C269.525977,102.275879 275.528613,116.769434 275.528613,132.184473 C275.528613,147.599512 269.524609,162.093066 258.625391,172.993652 Z" id="Shape"></path>
                <path d="M217.81416,102.396191 C201.389453,102.396191 188.027246,115.758398 188.027246,132.183105 C188.027246,148.607813 201.389453,161.97002 217.81416,161.97002 C234.238867,161.97002 247.601074,148.607813 247.601074,132.183105 C247.601074,115.758398 234.238867,102.396191 217.81416,102.396191 Z M217.81416,150.800098 C207.548633,150.800098 199.197168,142.448633 199.197168,132.183105 C199.197168,121.917578 207.548633,113.566113 217.81416,113.566113 C228.079688,113.566113 236.431152,121.917578 236.431152,132.183105 C236.431152,142.448633 228.079688,150.800098 217.81416,150.800098 Z" id="Shape"></path>
                <path d="M292.848828,57.1525391 C251.475684,15.7793945 184.156055,15.7793945 142.78291,57.1525391 C101.409766,98.5256836 101.409766,165.844629 142.78291,207.217773 C159.998535,224.433398 181.867383,234.952539 206.02832,237.638379 C209.096973,237.977441 211.855273,235.770117 212.196387,232.704883 C212.5375,229.639648 210.328125,226.87793 207.262891,226.536816 C185.649707,224.133984 166.083887,214.722949 150.681152,199.319531 C113.663867,162.302246 113.663867,102.069434 150.681152,65.0507812 C187.699805,28.0334961 247.931934,28.0334961 284.950586,65.0507812 C321.967871,102.069434 321.967871,162.301562 284.950586,199.320215 C269.547852,214.722949 249.982031,224.133984 228.369531,226.536133 C225.303613,226.877246 223.094922,229.638281 223.436035,232.704199 C223.753223,235.560254 226.171777,237.672559 228.97998,237.672559 C229.186426,237.672559 229.394922,237.661621 229.604102,237.638379 C253.765039,234.952539 275.63457,224.434082 292.849512,207.218457 C334.221973,165.844629 334.221973,98.5256836 292.848828,57.1525391 Z" id="Shape"></path>
            </g>
        </g>
    </g>
</svg>