<?xml version="1.0" encoding="UTF-8"?>
<svg width="660px" height="660px" viewBox="0 0 660 660" version="1.1" xmlns="http://www.w3.org/2000/svg" xmlns:xlink="http://www.w3.org/1999/xlink">
    <!-- Generator: Sketch 48.1 (47250) - http://www.bohemiancoding.com/sketch -->
    <title>660x660 copy 9</title>
    <desc>Created with Sketch.</desc>
    <defs></defs>
    <g id="Page-1" stroke="none" stroke-width="1" fill="none" fill-rule="evenodd">
        <g id="660x660-copy-9">
            <rect id="Rectangle-6" fill="#ECF0F1" x="0" y="0" width="660" height="660"></rect>
            <g id="002-woman-copy" transform="translate(18.000000, 446.000000)" fill="#36D1DC" fill-rule="nonzero">
                <path d="M138.122143,148.91434 C132.650612,143.755479 127.139276,141.640355 126.199396,141.30419 L107.445258,133.502235 C107.29538,133.439787 107.141848,133.388693 106.984659,133.349359 L94.011554,130.084622 L94.011554,119.096193 C94.2016421,119.001709 94.3892932,118.904388 94.5777566,118.806255 C94.9603698,119.062941 95.4014716,119.245014 95.8860337,119.322466 C104.077693,120.627793 111.572362,122.743323 117.559324,125.439944 C117.997583,125.637021 118.45615,125.730693 118.907406,125.730693 C120.055246,125.730693 121.150283,125.12081 121.747355,124.085145 C121.87733,123.965115 122.002024,123.836975 122.114127,123.692209 C132.697322,110.062713 138.525471,92.3919339 138.525471,73.9344713 C138.525471,51.3720612 129.908551,30.3351685 114.884688,16.2182529 C114.883063,16.2166309 114.88022,16.2146033 114.878595,16.2129813 C103.749507,5.75779405 89.7426956,0 75.4361304,0 C40.6491991,0 12.3476019,33.1672294 12.3476019,73.9344713 C12.3476019,92.7986574 18.4028009,110.756941 29.3970407,124.501196 C29.4197862,124.529176 29.445375,124.553506 29.4685268,124.58108 C29.4900538,124.605816 29.5119871,124.629336 29.5339203,124.653261 C29.6184039,124.746527 29.7069492,124.833711 29.7991501,124.915218 C29.8158031,124.929816 29.8320499,124.94482 29.8491091,124.959824 C30.202478,125.257466 30.6062121,125.469952 31.0339103,125.595253 C31.0436584,125.598498 31.0530003,125.600931 31.0627484,125.603769 C31.2008466,125.643103 31.3401633,125.673111 31.4823232,125.694197 C31.4912589,125.695819 31.4997885,125.697847 31.5091305,125.699063 C31.6606323,125.72015 31.8125403,125.734342 31.9652606,125.734342 C31.9985666,125.734342 32.0318727,125.727043 32.0655849,125.725827 C32.1768758,125.722177 32.2881667,125.713662 32.3990514,125.698252 C32.4624141,125.689331 32.5245582,125.68041 32.5875148,125.66865 C32.716271,125.643914 32.8442149,125.61269 32.9709403,125.571734 C33.0347092,125.551053 33.0968533,125.525101 33.1598099,125.499959 C33.2109874,125.479684 33.2629773,125.463058 33.3137487,125.439944 C39.3726033,122.711288 46.9659723,120.579943 55.2725777,119.277049 C55.6893093,119.211762 56.0739533,119.068213 56.4171679,118.867892 C56.5467365,118.934801 56.6763051,119.00252 56.8070922,119.067807 L56.8070922,130.053398 L43.0508889,133.340437 C42.8807032,133.380988 42.7137668,133.435326 42.5521107,133.50264 L23.7979718,141.304595 C22.8589042,141.64076 17.3475683,143.755885 11.8752249,148.914745 C6.45771457,154.022511 0,163.212922 0,177.99122 L0,204.339443 C0,206.150438 1.47033944,207.618373 3.2834873,207.618373 L42.7738802,207.618373 C44.5874342,207.618373 46.0573675,206.151249 46.0573675,204.340254 C46.0573675,202.529666 44.587028,201.062136 42.7738802,201.062136 L31.8986486,201.062136 L31.8986486,176.792947 C31.8986486,174.981952 30.4283091,173.514828 28.6151613,173.514828 C26.8016072,173.514828 25.331674,174.981952 25.331674,176.792947 L25.331674,201.062136 L6.5669746,201.062136 L6.5669746,177.99122 C6.5669746,154.43329 25.2382546,147.74283 26.0217587,147.473573 C26.0948695,147.448837 26.1675741,147.422074 26.2390602,147.392066 L41.8534964,140.895844 L43.9692418,148.438274 C43.9696479,148.440302 43.9700541,148.442735 43.9708664,148.444763 L58.7343742,201.062947 L52.2352301,201.062947 C50.4216761,201.062947 48.9517428,202.530882 48.9517428,204.341065 C48.9517428,206.15206 50.4220823,207.619184 52.2352301,207.619184 L63.0523793,207.619184 C63.0560348,207.619184 63.0592842,207.619995 63.0629397,207.619995 C63.0670014,207.619995 63.0710632,207.619184 63.0751249,207.619184 L87.799573,207.619184 C87.8036347,207.619184 87.8076964,207.619995 87.8117581,207.619995 C87.8154137,207.619995 87.8186631,207.619184 87.8219124,207.619184 L146.715099,207.619184 C148.52906,207.619184 149.998587,206.144761 149.998587,204.334577 L149.998587,177.99122 C149.998181,163.212517 143.54006,154.022511 138.122143,148.91434 Z M33.0184623,118.439677 C23.9088565,106.124429 18.9153888,90.4260359 18.9153888,73.9348768 C18.9145765,36.7819189 44.2706207,6.55623735 75.4361304,6.55623735 C88.2487983,6.55623735 100.333201,11.5484342 110.383499,20.9926925 C124.094212,33.8760557 131.958091,53.1725123 131.958091,73.9340658 C131.958091,90.3887293 126.961373,106.127267 117.85786,118.440082 C113.117843,116.525684 107.684898,114.932447 101.844564,113.741067 C107.636158,108.468665 111.606481,101.240097 112.714515,93.1157639 C120.721773,92.4649252 127.038546,85.7558117 127.038546,77.5978216 C127.038546,69.5472909 120.889928,62.9042751 113.035391,62.1029932 C113.009802,60.5685547 111.921669,59.2526844 110.410307,58.9453101 C88.0420572,54.3930884 78.2025619,41.0884034 78.1123919,40.9643182 C77.5482202,40.1719575 76.6607363,39.6699399 75.6895812,39.5953266 C74.7188322,39.5207133 73.7639239,39.8791815 73.0848058,40.576248 C60.31966,53.6566877 40.4916047,58.9327394 40.2950179,58.9838333 C38.8652955,59.3540612 37.8653022,60.6322193 37.8401196,62.1021822 C29.9839579,62.9022475 23.8341211,69.5464799 23.8341211,77.5974161 C23.8341211,85.7562172 30.1517066,92.4649252 38.158964,93.1153584 C39.2674049,101.240502 43.2381338,108.46907 49.03054,113.741878 C43.1893932,114.934069 37.7584792,116.525278 33.0184623,118.439677 Z M113.038234,86.4658544 L113.038234,68.7285723 C117.257539,69.4860594 120.471978,73.1704961 120.471978,77.5982271 C120.471978,82.0247417 117.257539,85.7091784 113.038234,86.4658544 Z M37.8352456,68.7281668 L37.8352456,86.4662599 C33.61594,85.7095839 30.4010957,82.0251472 30.4010957,77.5982271 C30.4010957,73.1696851 33.61594,69.4852484 37.8352456,68.7281668 Z M44.4022202,88.4816298 L44.4022202,64.6106486 C50.0260654,62.8373664 64.0897403,57.6862109 75.2038005,47.6373416 C79.4629109,52.1327923 89.4331932,60.701561 106.470853,64.7878551 L106.470853,88.4816298 C106.470853,103.717339 94.0558267,116.112878 78.7955717,116.112878 L72.07872,116.112878 C56.8180588,116.112472 44.4022202,103.717339 44.4022202,88.4816298 Z M48.1056884,138.87277 L60.8545874,135.827412 C62.3318317,135.474215 63.3736606,134.155912 63.3736606,132.639316 L63.3736606,121.54586 C66.1547143,122.276179 69.071429,122.668709 72.0791262,122.668709 L78.7959779,122.668709 C81.7825541,122.668709 84.680585,122.282667 87.4445795,121.562081 L87.4445795,132.639316 C87.4445795,134.141719 88.4669122,135.451101 89.9254726,135.81768 L102.721487,139.037405 L100.924993,145.440361 C89.5050855,152.112979 77.438554,154.121455 65.0405869,151.407802 C57.5219534,149.762255 52.0536716,146.768397 49.9647336,145.497943 L48.1056884,138.87277 Z M85.3194922,201.06173 L65.5539872,201.06173 L52.3859196,154.128754 C55.2985727,155.420294 59.0065088,156.775904 63.3423855,157.747904 C66.8110868,158.526072 70.925194,159.100676 75.5104597,159.100676 C82.3280419,159.100676 90.1862345,157.828195 98.5050251,154.064684 L85.3194922,201.06173 Z M143.431206,201.062136 L124.665694,201.062136 L124.665694,176.792947 C124.665694,174.981952 123.196167,173.514828 121.382207,173.514828 C119.568247,173.514828 118.09872,174.981952 118.09872,176.792947 L118.09872,201.062136 L92.138699,201.062136 L108.928188,141.221872 L123.757902,147.391255 C123.821265,147.418019 123.898031,147.446404 123.963831,147.469113 C124.758301,147.742424 143.4308,154.432885 143.4308,177.990814 L143.431206,201.062136 Z" id="Shape"></path>
                <path d="M74.7982768,93.291804 L80.6880632,93.291804 C82.5981486,93.291804 84.1455487,91.8098641 84.1455487,89.9814966 C84.1455487,88.1531292 82.5981486,86.6711893 80.6880632,86.6711893 L78.2557623,86.6711893 L78.2557623,79.2242263 C78.2557623,77.3954493 76.7083622,75.9139189 74.7982768,75.9139189 C72.8886191,75.9139189 71.3407913,77.3954493 71.3407913,79.2242263 L71.3407913,89.9814966 C71.3407913,91.8098641 72.8886191,93.291804 74.7982768,93.291804 Z" id="Shape"></path>
            </g>
            <g id="003-segment-path-copy" transform="translate(126.000000, 17.000000)" fill="#36D1DC" fill-rule="nonzero">
                <path d="M392.574887,132.597863 C418.862177,132.597863 440.246527,111.215322 440.246527,84.9328327 C440.246527,58.6503433 418.861021,37.2678028 392.574887,37.2678028 C366.288753,37.2678028 344.904403,58.6503433 344.904403,84.9328327 C344.904403,111.215322 366.289908,132.597863 392.574887,132.597863 Z M392.574887,58.0645677 C407.392326,58.0645677 419.446878,70.1174484 419.446878,84.9328327 C419.446878,99.7482169 407.392326,111.801098 392.574887,111.801098 C377.758604,111.801098 365.704052,99.7482169 365.704052,84.9328327 C365.704052,70.1174484 377.758604,58.0645677 392.574887,58.0645677 Z M120.357169,335.402137 C94.0710349,335.402137 72.6866847,356.784678 72.6866847,383.067167 C72.6866847,409.349657 94.0721905,430.732197 120.357169,430.732197 C146.644459,430.732197 168.028809,409.349657 168.028809,383.067167 C168.028809,356.784678 146.643303,335.402137 120.357169,335.402137 Z M120.357169,409.935432 C105.540886,409.935432 93.4863337,397.882552 93.4863337,383.067167 C93.4863337,368.251783 105.540886,356.198902 120.357169,356.198902 C135.174608,356.198902 147.22916,368.251783 147.22916,383.067167 C147.22916,397.882552 135.174608,409.935432 120.357169,409.935432 Z M483.403488,276.95514 C470.567793,245.188082 439.199612,223.60104 404.58784,223.60104 L285.625403,223.60104 C281.304853,211.121825 269.43172,202.136468 255.500578,202.136468 C241.569435,202.136468 229.696302,211.121825 225.375753,223.60104 L106.41216,223.60104 C81.5392464,223.60104 58.8814954,208.826094 48.391539,186.702957 C57.5849839,181.106317 63.7359023,170.991001 63.7359023,159.466127 C63.7359023,147.941254 57.5849839,137.824783 48.391539,132.228142 C58.8814954,110.106161 81.5404019,95.3300598 106.41216,95.3300598 L308.265821,95.3300598 C313.407956,137.277135 349.257307,169.86451 392.574887,169.86451 C439.413386,169.86451 477.518343,131.763681 477.518343,84.9316773 C477.518343,38.1008288 439.41223,0 392.574887,0 C349.256151,0 313.407956,32.5873753 308.265821,74.5332948 L106.41216,74.5332948 C71.801544,74.5332948 40.4322067,96.1203368 27.5953566,127.887395 C12.0372191,129.982092 0,143.345169 0,159.467283 C0,175.589397 12.0372191,188.951319 27.5953566,191.04486 C40.4310511,222.811918 71.8003885,244.39896 106.41216,244.39896 L225.375753,244.39896 C229.696302,256.878175 241.569435,265.863532 255.500578,265.863532 C269.43172,265.863532 281.304853,256.878175 285.625403,244.39896 L404.58784,244.39896 C429.460754,244.39896 452.118505,259.173906 462.607305,281.297043 C453.413861,286.893683 447.262942,297.008999 447.262942,308.533873 C447.262942,320.058746 453.413861,330.175217 462.607305,335.771858 C452.118505,357.893839 429.459598,372.66994 404.58784,372.66994 L204.668547,372.66994 C199.525256,330.722865 163.675905,298.13549 120.357169,298.13549 C73.5198261,298.13549 35.4148691,336.236319 35.4148691,383.068323 C35.4148691,429.899171 73.5198261,468 120.357169,468 C163.67706,468 199.526411,435.412625 204.668547,393.466705 L404.58784,393.466705 C439.199612,393.466705 470.567793,371.879663 483.403488,340.112605 C498.962781,338.017908 511,324.654831 511,308.533873 C511,292.412914 498.962781,279.049837 483.403488,276.95514 Z M392.574887,20.7979203 C427.943535,20.7979203 456.718694,49.5679339 456.718694,84.9328327 C456.718694,120.297731 427.943535,149.0689 392.574887,149.0689 C357.206239,149.0689 328.432236,120.297731 328.432236,84.9328327 C328.432236,49.5679339 357.206239,20.7979203 392.574887,20.7979203 Z M33.6087662,170.397138 C33.5232566,170.408692 33.4389024,170.421401 33.3522372,170.43411 C32.8669121,170.499967 32.3711871,170.533473 31.8673734,170.533473 C25.7638319,170.533473 20.7984935,165.568823 20.7984935,159.467283 C20.7984935,153.364588 25.7638319,148.399938 31.8673734,148.399938 C32.3688761,148.399938 32.86229,148.433444 33.3464596,148.498145 C33.4354358,148.513165 33.5232566,148.524718 33.6122329,148.537428 C38.8884105,149.377386 42.9339422,153.958451 42.9339422,159.467283 C42.9350978,164.976115 38.887255,169.559491 33.6087662,170.397138 Z M255.500578,245.066767 C249.398192,245.066767 244.432853,240.102117 244.432853,234.000578 C244.432853,227.899038 249.397036,222.934388 255.500578,222.934388 C261.604119,222.934388 266.568302,227.899038 266.568302,234.000578 C266.568302,240.102117 261.602964,245.066767 255.500578,245.066767 Z M120.357169,447.20208 C84.9885215,447.20208 56.2145181,418.432066 56.2145181,383.067167 C56.2145181,347.702269 84.9885215,318.9311 120.357169,318.9311 C155.726972,318.9311 184.502131,347.702269 184.502131,383.067167 C184.502131,418.432066 155.726972,447.20208 120.357169,447.20208 Z M479.130316,319.600062 C478.629968,319.600062 478.136555,319.566556 477.65354,319.501855 C477.563409,319.486835 477.473277,319.474126 477.383145,319.462572 C472.108123,318.621459 468.063747,314.040394 468.063747,308.532717 C468.063747,303.02273 472.110434,298.441665 477.388923,297.602862 C477.475588,297.591308 477.561098,297.578599 477.647763,297.56589 C478.133088,297.500033 478.628813,297.466527 479.131471,297.466527 C485.235013,297.466527 490.201506,302.431177 490.201506,308.532717 C490.200351,314.635412 485.233857,319.600062 479.130316,319.600062 Z" id="XMLID_32_"></path>
            </g>
        </g>
    </g>
</svg>