<?xml version="1.0" encoding="UTF-8"?>
<svg width="660px" height="660px" viewBox="0 0 660 660" version="1.1" xmlns="http://www.w3.org/2000/svg" xmlns:xlink="http://www.w3.org/1999/xlink">
    <!-- Generator: Sketch 48.1 (47250) - http://www.bohemiancoding.com/sketch -->
    <title>660x660 copy</title>
    <desc>Created with Sketch.</desc>
    <defs></defs>
    <g id="Page-1" stroke="none" stroke-width="1" fill="none" fill-rule="evenodd">
        <g id="660x660-copy">
            <rect id="Rectangle-6" fill="#ECF0F1" x="0" y="0" width="660" height="660"></rect>
            <g id="004-test-quiz-copy" transform="translate(120.000000, 5.000000)" fill="#36D1DC" fill-rule="nonzero">
                <path d="M161.12426,0.00441944887 C157.480424,0.103857044 154.121643,1.99317135 152.14394,5.05363955 L120.125034,53.0842077 L11.0751384,53.0842077 C4.97408948,53.0842077 0.026516692,58.0317805 0.026516692,64.1328294 L0.026516692,174.619046 C0.026516692,180.720095 4.97408948,185.667668 11.0751384,185.667668 L121.561355,185.667668 C127.662404,185.667668 132.609977,180.720095 132.609977,174.619046 L132.609977,87.4476308 L110.512733,120.593496 L110.512733,163.570424 L22.12376,163.570424 L22.12376,75.181451 L105.390592,75.181451 L74.3152391,121.793376 L60.7342733,94.6292349 C58.0715555,89.1380699 51.46227,86.8443761 45.9711051,89.5070939 C40.4799401,92.1698117 38.1862462,98.7790972 40.848964,104.270262 C40.8887391,104.349812 40.9263044,104.429362 40.9682892,104.508912 L63.0655325,148.703399 C65.7945421,154.161418 72.4303442,156.375562 77.8905731,153.646552 C79.6097386,152.78697 81.0747858,151.494281 82.1420827,149.89444 L170.531056,17.3109804 C173.989275,12.2816479 172.716473,5.402776 167.687141,1.94455741 C165.758051,0.620932538 163.462148,-0.0596625568 161.12426,0.00441944887 Z M209.950328,97.2831138 C203.84928,97.2831138 198.901707,102.230687 198.901707,108.331735 L198.901707,130.428979 C198.901707,136.530028 203.84928,141.477601 209.950328,141.477601 L408.825519,141.477601 C414.926567,141.477601 419.87414,136.530028 419.87414,130.428979 L419.87414,108.331735 C419.87414,102.230687 414.926567,97.2831138 408.825519,97.2831138 L209.950328,97.2831138 Z M11.0751384,207.846671 C4.97408948,207.846671 0.026516692,212.794244 0.026516692,218.895293 L0.026516692,329.381509 C0.026516692,335.482558 4.97408948,340.430131 11.0751384,340.430131 L121.561355,340.430131 C127.662404,340.430131 132.609977,335.482558 132.609977,329.381509 L132.609977,218.895293 C132.609977,212.794244 127.662404,207.846671 121.561355,207.846671 L11.0751384,207.846671 Z M22.12376,229.943914 L110.512733,229.943914 L110.512733,318.332888 L22.12376,318.332888 L22.12376,229.943914 Z M209.950328,251.959398 C203.84928,251.959398 198.901707,256.906971 198.901707,263.008019 L198.901707,285.105263 C198.901707,291.206312 203.84928,296.153884 209.950328,296.153884 L408.825519,296.153884 C414.926567,296.153884 419.87414,291.206312 419.87414,285.105263 L419.87414,263.008019 C419.87414,256.906971 414.926567,251.959398 408.825519,251.959398 L209.950328,251.959398 Z M11.0751384,362.445614 C4.97408948,362.445614 0.026516692,367.393187 0.026516692,373.494236 L0.026516692,483.980453 C0.026516692,490.081502 4.97408948,495.029075 11.0751384,495.029075 L121.561355,495.029075 C127.662404,495.029075 132.609977,490.081502 132.609977,483.980453 L132.609977,373.494236 C132.609977,367.393187 127.662404,362.445614 121.561355,362.445614 L11.0751384,362.445614 Z M22.12376,384.542858 L110.512733,384.542858 L110.512733,472.931831 L22.12376,472.931831 L22.12376,384.542858 Z M209.950328,406.717442 C203.84928,406.717442 198.901707,411.665014 198.901707,417.766063 L198.901707,439.863307 C198.901707,445.964355 203.84928,450.911928 209.950328,450.911928 L408.825519,450.911928 C414.926567,450.911928 419.87414,445.964355 419.87414,439.863307 L419.87414,417.766063 C419.87414,411.665014 414.926567,406.717442 408.825519,406.717442 L209.950328,406.717442 Z M11.0751384,517.126318 C4.97408948,517.126318 0.026516692,522.073891 0.026516692,528.17494 L0.026516692,638.661156 C0.026516692,644.762205 4.97408948,649.709778 11.0751384,649.709778 L121.561355,649.709778 C127.662404,649.709778 132.609977,644.762205 132.609977,638.661156 L132.609977,528.17494 C132.609977,522.073891 127.662404,517.126318 121.561355,517.126318 L11.0751384,517.126318 Z M22.12376,539.223561 L110.512733,539.223561 L110.512733,627.612535 L22.12376,627.612535 L22.12376,539.223561 Z M209.950328,561.320805 C203.84928,561.320805 198.901707,566.268377 198.901707,572.369426 L198.901707,594.46667 C198.901707,600.567718 203.84928,605.515291 209.950328,605.515291 L408.825519,605.515291 C414.926567,605.515291 419.87414,600.567718 419.87414,594.46667 L419.87414,572.369426 C419.87414,566.268377 414.926567,561.320805 408.825519,561.320805 L209.950328,561.320805 Z" id="Shape"></path>
            </g>
        </g>
    </g>
</svg>