<?xml version="1.0" encoding="UTF-8"?>
<svg width="660px" height="660px" viewBox="0 0 660 660" version="1.1" xmlns="http://www.w3.org/2000/svg" xmlns:xlink="http://www.w3.org/1999/xlink">
    <!-- Generator: Sketch 48.1 (47250) - http://www.bohemiancoding.com/sketch -->
    <title>660x660 copy 7</title>
    <desc>Created with Sketch.</desc>
    <defs></defs>
    <g id="Page-1" stroke="none" stroke-width="1" fill="none" fill-rule="evenodd">
        <g id="660x660-copy-7">
            <rect id="Rectangle-6" fill="#ECF0F1" x="0" y="0" width="660" height="660"></rect>
            <g id="001-business-2" transform="translate(5.000000, 15.000000)" fill="#36D1DC" fill-rule="nonzero">
                <path d="M637,510.501508 L566.734673,510.501508 L566.734673,377.318467 C566.734673,370.553894 561.250503,365.069724 554.48593,365.069724 L508.832412,365.069724 L508.832412,327.270101 C508.832412,320.505528 503.348241,315.021357 496.583668,315.021357 L336.873116,315.021357 L336.873116,288.438317 L496.583668,288.438317 C503.348241,288.438317 508.832412,282.954146 508.832412,276.189573 L508.832412,181.885678 C508.832412,175.121106 503.348241,169.636935 496.583668,169.636935 L336.873116,169.636935 L336.873116,143.055528 L598.102889,143.055528 C604.867462,143.055528 610.351633,137.571357 610.351633,130.806784 L610.351633,12.596608 C610.351633,5.83203518 604.867462,0.347864322 598.102889,0.347864322 L51.1458543,0.347864322 C44.3812814,0.347864322 38.8971106,5.83203518 38.8971106,12.596608 L38.8971106,130.808417 C38.8971106,137.57299 44.3812814,143.057161 51.1458543,143.057161 L312.375628,143.057161 L312.375628,169.640201 L152.665075,169.640201 C145.900503,169.640201 140.416332,175.124372 140.416332,181.888945 L140.416332,276.191206 C140.416332,282.955779 145.900503,288.43995 152.665075,288.43995 L312.375628,288.43995 L312.375628,315.02299 L152.665075,315.02299 C145.900503,315.02299 140.416332,320.507161 140.416332,327.271734 L140.416332,365.07299 L94.7628141,365.07299 C87.9982412,365.07299 82.5140704,370.557161 82.5140704,377.321734 L82.5140704,510.504774 L12.2487437,510.504774 C5.48417085,510.504774 0,515.988945 0,522.753518 L0,617.055779 C0,623.820352 5.48417085,629.304523 12.2487437,629.304523 L177.276884,629.304523 C184.041457,629.304523 189.525628,623.820352 189.525628,617.055779 L189.525628,522.753518 C189.525628,515.988945 184.041457,510.504774 177.276884,510.504774 L107.011558,510.504774 L107.011558,389.570477 L140.416332,389.570477 L140.416332,421.575628 C140.416332,428.340201 145.900503,433.824372 152.665075,433.824372 L312.375628,433.824372 L312.375628,510.504774 L242.110302,510.504774 C235.345729,510.504774 229.861558,515.988945 229.861558,522.753518 L229.861558,617.055779 C229.861558,623.820352 235.345729,629.304523 242.110302,629.304523 L407.138442,629.304523 C413.903015,629.304523 419.387186,623.820352 419.387186,617.055779 L419.387186,522.753518 C419.387186,515.988945 413.903015,510.504774 407.138442,510.504774 L336.873116,510.504774 L336.873116,433.824372 L496.583668,433.824372 C503.348241,433.824372 508.832412,428.340201 508.832412,421.575628 L508.832412,389.570477 L542.237186,389.570477 L542.237186,510.504774 L471.971859,510.504774 C465.207286,510.504774 459.723116,515.988945 459.723116,522.753518 L459.723116,617.055779 C459.723116,623.820352 465.207286,629.304523 471.971859,629.304523 L637,629.304523 C643.764573,629.304523 649.248744,623.820352 649.248744,617.055779 L649.248744,522.753518 C649.248744,515.987312 643.764573,510.501508 637,510.501508 Z M165.028141,534.997362 L165.028141,604.802136 L24.4974874,604.802136 L24.4974874,534.997362 L165.028141,534.997362 Z M63.394598,118.55804 L63.394598,24.8453518 L585.854146,24.8453518 L585.854146,118.559673 L63.394598,118.559673 L63.394598,118.55804 Z M164.913819,263.942462 L164.913819,194.137688 L484.333291,194.137688 L484.333291,263.942462 L164.913819,263.942462 Z M394.889698,534.997362 L394.889698,604.802136 L254.359045,604.802136 L254.359045,534.997362 L394.889698,534.997362 Z M164.913819,409.325251 L164.913819,339.518844 L484.333291,339.518844 L484.333291,409.325251 L164.913819,409.325251 Z M624.751256,604.803769 L484.220603,604.803769 L484.220603,534.998995 L624.751256,534.998995 L624.751256,604.803769 Z" id="Shape"></path>
            </g>
        </g>
    </g>
</svg>