<?xml version="1.0" encoding="UTF-8"?>
<svg width="660px" height="660px" viewBox="0 0 660 660" version="1.1" xmlns="http://www.w3.org/2000/svg" xmlns:xlink="http://www.w3.org/1999/xlink">
    <!-- Generator: Sketch 48.1 (47250) - http://www.bohemiancoding.com/sketch -->
    <title>660x660 copy 3</title>
    <desc>Created with Sketch.</desc>
    <defs></defs>
    <g id="Page-1" stroke="none" stroke-width="1" fill="none" fill-rule="evenodd">
        <g id="660x660-copy-3">
            <rect id="Rectangle-6" fill="#ECF0F1" x="0" y="0" width="660" height="660"></rect>
            <g id="002-school-copy" transform="translate(15.000000, 5.000000)" fill="#36D1DC" fill-rule="nonzero">
                <path d="M225.524284,71.0334011 C219.737266,71.0334011 215.046324,75.6075722 215.046324,81.2505342 C215.046324,86.8934962 219.737266,91.4676672 225.524284,91.4676672 L311.876764,91.4676672 C313.72313,84.0739237 316.878261,77.1751323 321.109896,71.0334011 L225.524284,71.0334011 Z" id="Shape"></path>
                <path d="M615.262775,0 L169.025114,0 C161.124453,0 154.716586,6.27772018 154.716586,14.0235861 L154.716586,307.086309 C154.716586,314.830905 161.121862,321.109896 169.025114,321.109896 L243.461337,321.109896 L243.60647,293.063993 L183.334938,293.063993 L183.334938,28.0459022 L600.955543,28.0459022 L600.955543,293.063993 L452.829493,293.063993 L452.829493,321.109896 L615.261479,321.109896 C623.163436,321.109896 629.570007,314.832175 629.570007,307.086309 L629.570007,14.0235861 C629.570007,6.27772018 623.163436,0 615.262775,0 Z" id="Shape"></path>
                <path d="M374.628861,62.2758585 C349.370546,62.2758585 328.894378,82.2502713 328.894378,106.889648 C328.894378,118.871507 333.822069,130.546594 343.054992,139.147621 C350.972825,139.147621 398.443436,139.147621 406.201431,139.147621 C414.921053,131.024499 420.362045,119.580125 420.362045,106.889648 C420.363345,82.2502713 399.887177,62.2758585 374.628861,62.2758585 Z" id="Shape"></path>
                <path d="M576.913617,99.1099721 C574.302221,96.7059888 571.24542,95.0665635 568.023702,94.1409792 L563.135937,71.4159832 C561.656882,64.5387651 554.747265,60.1327303 547.7013,61.5768954 C542.457731,62.6520947 538.621797,66.667609 537.61152,71.4869869 L428.923679,71.4869869 C433.134896,77.6097903 436.274805,84.4832046 438.112262,91.8511091 L540.89427,91.8511091 L543.210894,102.622121 L498.367858,149.053486 C489.090974,150.11347 426.474603,157.260756 417.628839,158.271291 C417.628839,158.271291 337.411839,158.271291 315.712968,158.271291 C287.204469,158.271291 263.675932,180.913872 263.531792,208.966683 L262.726688,365.570473 C262.648774,380.703142 273.70468,388.729099 284.658,388.782352 C284.695658,388.782352 284.733317,388.782352 284.770975,388.782352 C296.892995,388.781084 306.752931,379.213332 306.813963,367.359513 L307.0503,321.389672 L307.628158,209.18223 C307.695683,206.716119 309.781164,204.762249 312.305557,204.796482 C314.82995,204.830716 316.856996,206.839108 316.856996,209.305219 C316.845309,410.330715 316.377828,257.123693 316.377828,535.183159 C324.493804,531.705245 333.360344,529.614438 342.667095,529.225186 L342.667095,524.123061 C338.232526,515.352833 335.730209,505.49219 335.730209,495.067322 C335.730209,470.803067 349.244281,449.576756 369.300479,438.146424 L369.300479,364.604315 L380.726474,364.604315 L380.726474,432.961884 C387.760752,430.528739 395.320945,429.189811 403.199284,429.189811 C414.151306,429.189811 424.493006,431.7675 433.649125,436.309203 L433.564718,199.804667 C447.319024,198.23371 502.420652,191.94354 511.462497,190.912718 C516.612571,190.324402 521.386063,187.983814 524.944106,184.299228 L577.826502,129.54648 C586.184008,120.895437 585.773665,107.269061 576.913617,99.1099721 Z" id="Shape"></path>
                <path d="M509.632419,600.998037 C509.495181,573.752222 486.844348,551.725184 459.37204,551.725184 C445.184681,551.725184 359.541357,551.725184 345.34882,551.725184 C317.772936,551.725184 295.225679,573.830038 295.087145,600.999312 L294.837268,650.004273 L313.593634,650.004273 C313.593634,621.570808 337.179242,598.819188 365.542306,598.819188 L441.026095,598.819188 C469.595016,598.819188 492.972178,621.748126 492.972178,650.004273 L509.883592,650.004273 L509.632419,600.998037 Z" id="Shape"></path>
                <path d="M403.33349,452.473035 C378.883554,452.473035 359.059247,471.857822 359.059247,495.774218 C359.059247,519.713538 378.947365,539.0754 403.33349,539.0754 C427.63627,539.0754 447.607733,519.821798 447.607733,495.774218 C447.609035,471.859096 427.78603,452.473035 403.33349,452.473035 Z" id="Shape"></path>
                <path d="M107.523162,452.473035 C83.1266189,452.473035 63.2489188,471.800508 63.2489188,495.774218 C63.2476166,519.82944 83.2347065,539.0754 107.523162,539.0754 C131.917101,539.0754 151.797405,519.705897 151.797405,495.774218 C151.798707,471.859096 131.975702,452.473035 107.523162,452.473035 Z" id="Shape"></path>
                <path d="M441.594486,613.027982 L366.045554,613.027982 C345.527531,613.027982 328.894378,629.145927 328.894378,649.031213 L478.745662,649.031213 C478.745662,629.147183 462.112509,613.027982 441.594486,613.027982 Z" id="Shape"></path>
                <path d="M142.864977,613.027982 L67.3160453,613.027982 C46.7980221,613.027982 30.164869,629.145927 30.164869,649.031213 C45.6615874,649.031213 164.652905,649.031213 180.016154,649.031213 C180.016154,629.147183 163.383,613.027982 142.864977,613.027982 Z" id="Shape"></path>
                <path d="M256.812593,404.281493 C246.668234,402.027051 236.582288,408.251852 234.283419,418.173938 L211.967127,514.44307 C206.890405,518.07685 165.000627,548.060298 159.28396,552.152587 C147.698751,552.152587 57.3042702,552.152587 50.6426131,552.152587 C23.1353692,552.152587 0.390716834,574.047984 0.250526076,601.211791 L0,650.004273 L15.0224781,650.004273 C15.0224781,621.870104 38.4551036,599.042446 67.1059407,599.042446 L142.785585,599.042446 C152.473026,599.042446 161.546483,601.651249 169.325772,606.180455 L169.62173,590.41333 L239.893645,540.11577 C243.56197,537.490456 246.13473,533.657269 247.139431,529.319849 L271.013398,426.326764 C273.313564,416.402137 266.955654,406.532125 256.812593,404.281493 Z" id="Shape"></path>
            </g>
        </g>
    </g>
</svg>